<svg width="18" height="16" viewBox="0 0 18 16" fill="none" xmlns="http://www.w3.org/2000/svg">
<path fill-rule="evenodd" clip-rule="evenodd" d="M9.29289 14.2929C8.90237 14.6834 8.90237 15.3166 9.29289 15.7071C9.68342 16.0976 10.3166 16.0976 10.7071 15.7071L17.7071 8.70711C18.0976 8.31658 18.0976 7.68342 17.7071 7.29289L10.7071 0.292894C10.3166 -0.0976308 9.68342 -0.0976307 9.29289 0.292894C8.90237 0.683418 8.90237 1.31658 9.29289 1.70711L14.5858 7L0.999999 7C0.447715 7 -7.47665e-07 7.44772 -6.99382e-07 8C-6.511e-07 8.55228 0.447713 9 0.999999 9L14.5858 9L9.29289 14.2929Z" fill="#ffffff"/>
</svg>
