<svg width="46" height="46" viewBox="0 0 46 46" fill="none" xmlns="http://www.w3.org/2000/svg">
<g clip-path="url(#clip0)">
<g opacity="0.2">
<path d="M25.2521 37.0875H5.41458C3.27558 37.0875 1.53333 35.3471 1.53333 33.2062V18.5437C1.53333 16.4028 3.27558 14.6625 5.41458 14.6625H25.2521C27.3911 14.6625 29.1333 16.4028 29.1333 18.5437V33.2062C29.1333 35.3471 27.3911 37.0875 25.2521 37.0875Z" fill="#2EE9D7"/>
</g>
<path d="M33.0472 39.0981C31.5062 39.0981 29.971 38.502 28.798 37.3252L22.8429 31.3337C21.7101 30.2124 21.0834 28.7021 21.0834 27.0902C21.0834 25.4783 21.7101 23.9679 22.8505 22.8371C25.0451 20.5946 29.0567 20.5658 31.326 22.8428L32.3495 23.8683C32.9092 24.4298 32.9092 25.3403 32.3476 25.9018C31.7841 26.4615 30.8737 26.4615 30.314 25.898L29.2905 24.8726C28.1156 23.6938 26.0303 23.6996 24.8899 24.863C24.2842 25.4648 23.9584 26.2526 23.9584 27.0902C23.9584 27.9278 24.2842 28.7155 24.8765 29.302L30.8354 35.2993C31.9777 36.4397 33.7775 36.5355 35.0214 35.5101C35.6366 35.006 36.5413 35.098 37.0454 35.7094C37.5495 36.3228 37.4594 37.2274 36.846 37.7334C35.7325 38.6477 34.387 39.0981 33.0472 39.0981Z" fill="#2EE9D7"/>
<path d="M39.997 46C38.3889 46 36.8805 45.3713 35.7516 44.2251L34.7702 43.24C34.2106 42.6784 34.2106 41.766 34.7741 41.2064C35.3376 40.6467 36.248 40.6467 36.8076 41.2102L37.7947 42.2011C38.9735 43.3952 41.0301 43.3895 42.1992 42.2069C42.8011 41.607 43.1269 40.8211 43.1269 39.9835C43.1269 39.146 42.8011 38.3582 42.2088 37.7717L36.2499 31.7745C35.6634 31.188 34.8756 30.8621 34.0361 30.8621C33.5206 30.8621 32.7596 30.9829 32.0696 31.556C31.4563 32.062 30.5516 31.9776 30.0456 31.3662C29.5377 30.7567 29.6221 29.8501 30.2335 29.3422C32.5047 27.46 36.1713 27.6268 38.2873 29.7428L44.2424 35.7362C45.3732 36.8613 46 38.3735 46 39.9835C46 41.5935 45.3732 43.1058 44.2328 44.2366C43.1154 45.3713 41.607 46 39.997 46Z" fill="#2EE9D7"/>
<path d="M21.5625 38.3333H4.3125C1.93392 38.3333 0 36.3975 0 34.0208V17.7291C0 15.3525 1.93392 13.4166 4.3125 13.4166H26.3542C27.5904 13.4166 28.7596 13.9456 29.5646 14.8675C30.0859 15.4675 30.0246 16.374 29.4266 16.8973C28.8267 17.4186 27.9182 17.3554 27.3968 16.7593C27.14 16.4622 26.7586 16.2916 26.3542 16.2916H4.3125C3.519 16.2916 2.875 16.9375 2.875 17.7291V34.0208C2.875 34.8124 3.519 35.4583 4.3125 35.4583H21.5625C22.356 35.4583 23 36.1023 23 36.8958C23 37.6893 22.356 38.3333 21.5625 38.3333Z" fill="#2EE9D7"/>
<path d="M23.4792 16.2917C22.6857 16.2917 22.0417 15.6477 22.0417 14.8542V9.58333C22.0417 5.88417 19.0325 2.875 15.3333 2.875C11.6342 2.875 8.625 5.88417 8.625 9.58333V14.8542C8.625 15.6477 7.981 16.2917 7.1875 16.2917C6.394 16.2917 5.75 15.6477 5.75 14.8542V9.58333C5.75 4.29908 10.0491 0 15.3333 0C20.6176 0 24.9167 4.29908 24.9167 9.58333V14.8542C24.9167 15.6477 24.2727 16.2917 23.4792 16.2917Z" fill="#2EE9D7"/>
</g>
<defs>
<clipPath id="clip0">
<rect width="46" height="46" fill="white"/>
</clipPath>
</defs>
</svg>
